#!OML:ASF E:/inclinewalkrobotboard/Project1/Captureday1/Session1/subject1.ASF
:FULLY-SPECIFIED
:DEGREES
26
root 0 0 0 -2.187435302849046 -4.767673027571208 -5.768686841615897
lowerback 10.473562309870372 1.883901201769143 4.658542346827745
upperback 0.5182387460558093 3.134176801103675 1.6616816328323654
thorax -5.205201289247411 1.4585916359047368 -1.3087775790487315
lowerneck -16.87645293690852 -3.2028694299531777 -1.6711139426281338
upperneck 19.14813857195649 -4.131112775446498 0.6773576710497373
head 8.850230158338736 -1.9804485745398488 -0.0172257016211379
rclavicle -4.845863322720868E-16 -3.1285769957224406E-16
rhumerus -28.8525482295755 -17.773871856552475 -78.02601043138435
rradius 26.901676432936544
rwrist 4.427175887742154
rhand -17.716158187830523 22.31794377399116
rfingers 7.1250200000000214
rthumb 8.536570725362576 -7.495517041131876
lclavicle -6.527305509358008E-16 -1.9514684522634707E-16
lhumerus -30.296923647382446 -1.515937476191123 82.28726743279302
lradius 32.34240899061645
lwrist 5.675832638367121
lhand -25.618403445857346 23.88707759443349
lfingers 7.12395805840067
lthumb 0.9040671795291111 53.51008819126276
rfemur -8.31428864612994 5.158134367418347 28.393829124730527
rtibia 39.938031012270045
rfoot -8.045991566798838 -5.187013741801782
rtoes 5.461738674487379
lfemur -14.220541943693327 -1.8235530201984087 -17.021875233069554
ltibia 34.61072632193823
lfoot -6.142865789345641 -1.23811482970914
ltoes -3.252192637554942
27
root 0 0 0 -2.2032421705926213 -4.741983517485947 -5.649988179214291
lowerback 10.471103207628591 1.8393598578585761 4.527658268476356
upperback 0.5292641804096814 3.0599304856231484 1.651299285955623
thorax -5.193533007047094 1.4247669694591572 -1.2370963400641972
lowerneck -16.827910480674767 -3.1922907769033335 -1.698191141539854
upperneck 19.123322242479343 -4.1149540780970835 0.6981061300169218
head 8.834858338380613 -1.9747446734254688 -0.003329775345300323
rclavicle -4.603441981952907E-16 -3.206717282540402E-16
rhumerus -29.170776041166345 -18.07027352315957 -78.08776325183796
rradius 26.617572741497284
rwrist 4.363247293205453
rhand -17.666733785992548 22.54506777811874
rfingers 7.125020000000025
rthumb 8.58351478785822 -7.272619178021859
lclavicle -6.481388511474411E-16 -1.9342265875209828E-16
lhumerus -30.387232211349357 -1.4181178251913131 82.29331854642038
lradius 32.15332317488963
lwrist 5.655629692458395
lhand -25.674017288904018 23.8516568187277
lfingers 7.1240110699038555
lthumb 0.8507731583287494 53.49571934587819
rfemur -13.130955889428131 3.3250491959410526 25.965753827634263
rtibia 49.42863268628179
rfoot -3.3491810567835874 -4.830303762348917
rtoes 7.438318672646626
lfemur -10.1865301288692 -2.3858742724767343 -19.280430669665712
ltibia 29.528923754749894
lfoot -8.880305805630538 -0.31920615533537955
ltoes -2.9901922244597663
28
root 0 0 0 -2.2252489895200913 -4.698256087502504 -5.4694565239300434
lowerback 10.467318655116165 1.7705029256859568 4.329924841587205
upperback 0.5445147614404151 2.9456543209562 1.637224407634494
thorax -5.176574240947714 1.3725496202599616 -1.1264019053714311
lowerneck -16.760586909529117 -3.176435464409729 -1.7372789868205558
upperneck 19.09085623992583 -4.09045238476698 0.7269907774857485
head 8.813986902774406 -1.965969362810161 0.01638098510723962
rclavicle -4.48549302447828E-16 -3.2383929994409025E-16
rhumerus -29.322476374031563 -18.20927918442279 -78.11956955341307
rradius 26.481541540968536
rwrist 4.332288587453022
rhand -17.64250716903144 22.65368274356432
rfingers 7.125020000000027
rthumb 8.606514564829208 -7.165947062947584
lclavicle -6.464464232708093E-16 -1.9237676128078438E-16
lhumerus -30.365522373504586 -1.445280973658754 82.29349543661091
lradius 32.20031992178774
lwrist 5.660619352074972
lhand -25.65947269793109 23.860656806325018
lfingers 7.1239888305504415
lthumb 0.8639241094182637 53.50210854207126
rfemur -16.67697622612126 2.268945774948506 24.053678722495697
rtibia 55.1736702591158
rfoot -0.5309902353721956 -4.8266878486840215
rtoes 8.31206167528008
lfemur -5.980012781873574 -2.909251157793764 -21.5468086863533
ltibia 24.68574104516599
lfoot -11.72680197886849 0.6117230791535437
ltoes -2.9255577072844265
29
root 0 0 0 -2.253032808729914 -4.5506990716697135 -5.21133067921699
lowerback 10.464105872378413 1.6607978043358596 4.045770201183168
upperback 0.5533756689773326 2.767720766536489 1.630608439642196
thorax -5.166878256857025 1.2912572548105972 -0.9505500046024019
lowerneck -16.727993920568686 -3.152203230962222 -1.7693361504013234
upperneck 19.08973660952829 -4.050211749859095 0.7310528878296427
head 8.80731564975244 -1.9507425424714737 0.027908734299809
rclavicle -4.383130122474654E-16 -3.2547397426653125E-16
rhumerus -29.463904476056786 -18.34436104325961 -78.14623108379779
rradius 26.351425682013282
rwrist 4.305237971344391
rhand -17.619748702418462 22.756284244257706
rfingers 7.125020000000028
rthumb 8.627829712140764 -7.065220755170081
lclavicle -6.480144926653037E-16 -1.8911655114193713E-16
lhumerus -30.30605924444695 -1.5153944430541095 82.29022538140437
lradius 32.32600847332443
lwrist 5.671273459028697
lhand -25.619609277507735 23.882572375470836
lfingers 7.123940367497502
lthumb 0.8999133210866166 53.51492540940952
rfemur -19.075561504228116 1.7870577315185825 22.671032302161635
rtibia 58.02540896213374
rfoot 0.8491970310118617 -5.0359612212051745
rtoes 8.44220142294332
lfemur -1.999335412583024 -3.344324949356441 -23.655166148076226
ltibia 20.47439301507588
lfoot -14.345890907989869 1.400117865096309
ltoes -2.972556364581664
